<svg width="78.5" height="109.3" viewBox="0 0 78.5 109.3" xmlns="http://www.w3.org/2000/svg" xmlns:xlink="http://www.w3.org/1999/xlink" overflow="hidden"><defs></defs><path d="M78.4 70.2C76.3 67 74.6 63.6 73.3 60 71.7 55.8 70.6 51.5 69.8 47 68.9 41.6 68.9 36.2 69 30.8 69 27.1 68.6 23.6 67.4 20.1 66.1 16.4 64.2 13.1 61.7 10.2 57.5 5.3 52.2 2.2 45.9 0.7 44.4 0.4 43 0.1 41.5 1.11022e-15 41.4 1.11022e-15 41.2 1.11022e-15 41.1-0.1 39.8-0.1 38.5-0.1 37.3-0.1 36.5 0.2 35.7 0.1 34.9 0.2 30.9 0.9 27.3 2.2 24 4.2 19.8 6.7 16.4 10.1 13.8 14.4 11.6 18 10.3 21.9 9.8 26 9.4 29.3 9.6 32.6 9.6 35.9 9.6 43.6 8.4 51.1 5.9 58.3 4.4 62.5 2.6 66.4 0.2 70.1-0.1 70.6 0.1 70.6 0.5 70.7 5.3 71.5 9.9 70.7 14.1 68.2 14.3 68.1 14.4 67.9 14.6 68 14.8 68.1 14.7 68.4 14.7 68.6 14.7 77.2 14.7 85.9 14.7 94.5 14.7 96.7 15.3 98.5 16.7 100.2 18.1 101.9 19.9 102.8 22 103 25.2 103.3 27.8 102.1 29.7 99.5 30.3 98.6 30.7 97.6 31.1 96.6 31.1 98 31.1 99.4 31.1 100.8 31.1 102.7 31.7 104.4 32.8 105.9 35.8 109.9 41.6 110.4 45.2 106.9 46.8 105.4 47.6 103.5 47.7 101.3 47.8 100.2 47.8 99.1 47.7 98 47.8 98 47.8 98.1 47.9 98.2 50.2 103.3 56.7 104.7 60.9 101 62.8 99.4 63.7 97.4 63.7 94.9 63.7 86.2 63.7 77.4 63.7 68.7 63.7 68.5 63.6 68.2 63.8 68.1 64 68 64.2 68.2 64.4 68.3 67 69.8 69.7 70.7 72.7 70.9 74.5 71.1 76.4 70.9 78.2 70.6 78.7 70.6 78.5 70.4 78.4 70.2ZM58.1 24.7C58.4 24.8 58.8 24.9 58.9 25.3 58.9 25.6 58.9 25.8 58.6 25.7 58.3 25.6 57.8 25.7 57.7 25.2 57.6 25.1 57.7 24.6 58.1 24.7ZM58 39.2C57.7 39.6 56.9 39.6 56.5 39.2 56.4 39.1 56.3 39 56.2 38.9 56 38.8 55.9 38.5 55.6 38.8 55.4 39 55 39.2 55.4 39.5 55.6 39.7 55.6 39.9 55.3 39.9 54.9 39.9 54.7 40.1 54.8 40.5 54.9 41 55.3 40.7 55.5 40.8 55.5 40.8 55.5 40.8 55.6 40.8 56.1 40.8 56.5 41.1 56.7 41.6 56.8 41.8 56.8 41.9 56.8 42.1 56.8 42.3 56.6 42.4 56.5 42.5 55.3 43.1 54 43.5 52.6 43.7 52.2 43.8 52 43.7 51.9 43.2 51.7 41.7 51.3 40.2 50.7 38.8 50.5 38.4 50 38 50.2 37.6 50.4 37.3 51 37.3 51.4 37.1 52.8 36.6 54 35.9 55.1 35 55.5 34.7 55.7 34.7 55.9 35.1 56.7 36.3 57.3 37.5 57.8 38.9 58.1 39 58.1 39.1 58 39.2ZM58.2 40.4C58.8 40.3 58.4 41 58.7 41.1 58.7 41.5 58.4 41.7 58.2 41.7 57.7 41.6 57.7 41.1 57.6 40.8 57.5 40.4 58 40.4 58.2 40.4ZM55.5 31.1C54.1 30 52.5 29.1 50.7 28.6 50.3 28.5 50.3 28.3 50.5 28 51.4 26.5 51.9 24.9 52.1 23.2 52.2 22.7 52.3 22.4 52.9 22.6 54.1 22.9 55.3 23.2 56.5 23.8 56.7 23.9 57.1 23.9 56.9 24.3 56.7 24.7 56.8 25.2 56.1 25.2 56 25.2 55.9 25.2 55.7 25.2 55.5 25.3 54.9 25 55 25.7 55 26 55.1 26.2 55.4 26.2 55.8 26.2 55.8 26.3 55.6 26.6 55.3 26.9 55.6 27.1 55.8 27.2 56 27.4 56.2 27.3 56.4 27.1 56.7 26.9 56.8 26.4 57.4 26.6 58.6 27 58.6 27 58.2 28.2 57.8 29.2 57.3 30.1 56.7 31 56.2 31.4 55.9 31.5 55.5 31.1ZM51 14.6C51.8 14.5 52.6 14.5 53.4 14.5 54.6 14.5 55.8 14.6 57 14.7 57.3 14.7 57.4 14.9 57.5 15.2 57.8 17.5 57.9 19.7 57.5 22 57.4 22.8 57.3 22.8 56.6 22.5 54.9 21.9 53.2 21.5 51.5 21.6 51.1 21.6 50.9 21.5 50.9 21.1 51.1 19.3 50.7 17.6 50.2 15.9 49.9 14.7 49.6 14.9 51 14.6ZM45.4 34C47 34.6 48.5 35.5 49.6 36.9 49.7 37.1 50 37.2 49.9 37.4 49.8 37.6 49.5 37.6 49.3 37.6 47.5 37.7 45.8 37.4 44.1 36.6 43 36.1 42.1 35.4 41.1 34.7 41 34.6 40.9 34.5 40.7 34.6 41.7 35.9 42.7 37.3 43.2 38.9 43.8 40.5 44 42.1 43.7 43.9 40.5 41.7 39.7 38.3 39.2 34.7 39 35.3 39 35.8 39 36.3 38.6 38.8 37.8 41.1 35.9 42.9 35.6 43.2 35.2 43.8 34.8 43.6 34.4 43.5 34.5 42.8 34.5 42.3 34.5 40.3 35.1 38.5 36.1 36.8 36.2 36.5 36.4 36.3 36.6 36.1 37.1 35.4 37.7 34.7 38.1 34L38.1 34C37.2 34.6 36.4 35.4 35.4 35.9 33.6 36.9 31.6 37.7 29.5 37.6 29.3 37.6 29.2 37.6 29 37.6 28.8 37.6 28.7 37.5 28.4 37.4 30.8 34.2 34.3 33.4 37.9 33 36.3 32.9 34.7 32.6 33.1 32.1 31.3 31.5 29.8 30.5 28.6 29 28.4 28.7 28.4 28.5 28.8 28.5 30.3 28.3 31.7 28.5 33 29 34.6 29.6 36 30.5 37.4 31.6 37.5 31.7 37.6 31.7 37.7 31.8 37.7 31.8 37.8 31.8 37.9 31.8 37.3 31 36.7 30.3 36.2 29.5 35.2 27.7 34.4 25.8 34.4 23.7 34.4 23.3 34.3 22.7 34.7 22.6 35 22.5 35.4 23 35.6 23.2 37.4 24.9 38.2 27.2 38.7 29.6 38.8 30.3 38.9 30.9 39.1 31.6 39.2 30.9 39.3 30.2 39.4 29.5 39.8 27.3 40.5 25.3 42.1 23.6 42.4 23.2 42.8 22.9 43.2 22.6 43.5 22.4 43.6 22.4 43.7 22.8 44 25.2 43.3 27.4 42.1 29.5 41.6 30.3 41.1 31 40.6 31.8 42 30.8 43.4 29.8 45 29.2 46.6 28.6 48.2 28.3 50.1 28.7 47.7 32 44.3 32.8 40.5 33.1 42.2 33.2 43.8 33.4 45.4 34ZM46.6 13.9C46.6 13.4 47.1 13.6 47.4 13.5 47.8 13.4 47.8 13.8 47.9 14 47.7 14.4 47.2 14.6 46.9 14.6 46.5 14.7 46.6 14.1 46.6 13.9ZM45.5 14.4C45.6 14.8 46.1 15.1 45.6 15.5 45.5 15.6 45.3 15.7 45.1 15.9 44.9 16.1 44.6 16.2 44.9 16.6 45.2 16.9 45.4 16.9 45.7 16.7 46.4 16.1 47.1 15.7 48 15.4 48.2 15.3 48.4 15.2 48.6 15.5 49.2 16.9 49.7 18.3 49.9 19.8 49.9 20.1 49.8 20.2 49.5 20.3 47.6 20.5 45.8 21 44.1 22 43.7 22.2 43.6 22.1 43.5 21.8 43 20.1 42.2 18.5 41.1 17.1 40.9 16.8 40.8 16.6 41.2 16.3 42.3 15.4 43.5 14.9 44.8 14.4 45.2 14.1 45.5 14.1 45.5 14.4ZM34.3 12.2C35.6 10.4 37.1 8.9 38.8 7.6 38.9 7.5 39 7.5 39.2 7.4 39.3 7.5 39.5 7.6 39.6 7.7 41.4 9.1 43 10.7 44.3 12.6 44.5 12.9 44.6 13.1 44.1 13.3 42.4 14 40.9 15 39.7 16.4 39.4 16.7 39.3 16.7 39 16.4 37.8 14.9 36.1 13.9 34.4 13 34.1 12.7 34.1 12.5 34.3 12.2ZM31.6 13.3C31.8 13.3 31.9 13.3 31.9 13.6 31.7 13.9 31.9 14.4 31.5 14.5 31.3 14.5 30.9 14.4 31 14.1 31 13.8 31.1 13.4 31.6 13.3ZM30.4 15.3C30.9 15.3 31.3 15.7 31.3 16.2 31.3 16.4 31.3 16.6 31.3 16.8 31.3 17.1 31.5 17.2 31.7 17.2 31.9 17.2 32.2 17.3 32.2 16.9 32.2 16.5 32.4 16.4 32.7 16.7 33 17 33.1 16.7 33.3 16.5 33.5 16.3 33.5 16.1 33.3 16 32.6 15.2 32.6 15.1 33 14.2 33.2 13.9 33.4 13.8 33.7 14 35 14.5 36.2 15.1 37.3 15.9 37.7 16.2 37.4 16.4 37.3 16.6 36.3 17.9 35.4 19.3 34.9 20.9 34.8 21.3 34.8 21.8 34.5 21.9 34.3 22 33.9 21.6 33.6 21.5 32.2 20.8 30.8 20.4 29.3 20.2 28.8 20.1 28.7 19.9 28.8 19.5 29 18.1 29.5 16.8 30.1 15.6 30.2 15.4 30.2 15.3 30.4 15.3ZM20.8 16.2C20.8 15.9 20.9 15.6 20.9 15.4 20.9 14.9 21.2 14.7 21.7 14.6 22.9 14.5 24 14.4 25.1 14.3 26.3 14.4 27.4 14.5 28.5 14.7 28.9 14.8 28.9 14.9 28.8 15.3 28.2 17 27.7 18.8 27.9 20.7 27.9 21.1 27.8 21.2 27.4 21.2 25.4 21.1 23.5 21.4 21.6 22.1 21.2 22.2 21.1 22.2 21 21.8 20.6 20 20.7 18.1 20.8 16.2ZM23.1 39.9C22.8 39.9 22.6 39.8 22.9 39.5 23.2 39.2 23 39 22.7 38.7 22.4 38.4 22.3 38.7 22.1 38.9 21.4 39.6 21 39.6 20.2 39.1 20 39 20 38.9 20 38.7 20.5 37.3 21.2 36 22 34.8 22.2 34.5 22.4 34.7 22.5 34.8 23.2 35.3 23.8 35.8 24.6 36.2 25.5 36.7 26.5 37.2 27.6 37.4 27.9 37.5 28.1 37.6 27.8 37.9 26.9 39.4 26.4 41.1 26.1 42.8 26 43.3 25.8 43.4 25.4 43.3 24.2 43.1 23 42.7 21.9 42.2 21.6 42.1 21.3 42 21.5 41.6 21.7 41.2 21.7 40.7 22.3 40.7 22.4 40.7 22.5 40.7 22.6 40.7 22.8 40.6 23.2 40.9 23.3 40.5 23.5 40.3 23.6 39.9 23.1 39.9ZM23.9 62.9C25.9 63.4 26.4 64 26.6 66 26.6 66.3 26.6 66.5 26.2 66.4 26 66.4 25.9 66.3 25.7 66.3 24.2 66.1 23.1 65.4 23 63.7 22.9 64.1 22.7 64.5 22.6 65 22.4 65.5 22.1 65.8 21.7 65.9 21.1 66.1 20.5 66.3 19.9 66.4 19.6 66.5 19.5 66.4 19.6 66.1 19.7 65.9 19.7 65.7 19.7 65.5 20.2 63.5 20.2 63.4 22.6 62.9 23.2 62.8 22.9 63.3 23.2 63.6 23 62.7 23.3 62.7 23.9 62.9ZM19.5 69.3C19.6 67.7 20.5 66.8 22.1 66.6 22.6 66.5 22.9 66.5 22.9 67.2 22.9 66.5 23.3 66.5 23.8 66.6 25.8 67.1 26 67.1 26.5 69.7 26.6 70.1 26.5 70.3 26.1 70.1 26 70.1 26 70.1 25.9 70.1 23.7 69.7 23.7 69.6 23 67.4 22.9 67.7 22.9 67.8 22.8 68 22.4 69.4 21 70.4 19.6 70.2 19.4 70.2 19.4 70.1 19.4 70 19.4 69.8 19.5 69.5 19.5 69.3ZM19.6 72.6C20 71.1 20.9 70.4 22.5 70.3 23 70.3 22.7 70.8 23 70.9 23 70.3 23.2 70.3 23.8 70.3 25.6 70.5 26.3 71.6 26.5 73.2 26.6 73.9 26.6 73.9 25.9 73.8 25.8 73.8 25.7 73.8 25.7 73.7 23.6 73.2 23.6 73.2 23 71.1 22.9 71.3 22.9 71.4 22.8 71.5 22.6 72.7 21.9 73.3 20.7 73.6 19.2 74.1 19.2 74.1 19.6 72.6ZM26 62.6C25.9 62.6 25.8 62.6 25.6 62.5 24.1 62.3 23 61.7 22.9 60 22.8 60.4 22.6 60.8 22.5 61.1 22.3 61.6 22 62 21.5 62.2 20.9 62.4 20.3 62.5 19.7 62.7 19.4 62.8 19.3 62.7 19.4 62.4 19.5 61.7 19.7 61 19.9 60.3 20.1 59.9 20.3 59.6 20.7 59.5 21.1 59.4 21.6 59.3 22 59.1 22.5 58.9 22.9 58.9 22.9 59.6 22.9 59.1 23.1 58.9 23.6 59 25.8 59.5 25.9 59.6 26.4 62.1 26.6 62.6 26.5 62.8 26 62.6ZM20.4 41.3C20.1 41.3 19.6 40.8 19.6 40.6 19.6 40.4 19.7 40.1 19.9 40.2 20.2 40.3 20.7 40.3 20.9 40.7 20.7 40.9 20.7 41.3 20.4 41.3ZM22.9 26.5C22.7 26.3 22.7 26.1 23 26.1 23.5 26.1 23.4 25.8 23.4 25.5 23.4 25.1 23.1 25.1 22.9 25.1 22.8 25.1 22.7 25.1 22.7 25.1 22.2 25.1 21.8 24.8 21.6 24.4 21.5 24.3 21.5 24.1 21.5 23.9 21.5 23.7 21.6 23.6 21.8 23.5 23.1 22.9 24.4 22.5 25.8 22.2 26.1 22.1 26.2 22.3 26.3 22.6 26.5 24.6 27 26.4 28 28.2 28.2 28.5 28.1 28.6 27.8 28.7 26 29 24.4 29.9 23 31 22.7 31.2 22.5 31.1 22.3 30.9 21.5 29.7 20.8 28.5 20.4 27.1 20.3 26.9 20.4 26.8 20.5 26.7 21 26.3 21.6 26.4 22 26.8 22.3 27.1 22.5 27.5 22.9 27 23.1 26.8 23.1 26.7 22.9 26.5ZM20.2 24.3C20.6 24.4 20.7 24.9 20.8 25.2 20.8 25.6 20.4 25.6 20.1 25.6 19.6 25.6 19.9 25.1 19.7 24.8 19.7 24.4 20 24.2 20.2 24.3ZM14.5 63.3C12.8 65.4 10.6 66.6 7.9 66.5 7.6 66.5 7.3 66.5 6.9 66.5 6.5 66.5 6.5 66.4 6.7 66.1 7.6 64.7 8.3 63.2 8.9 61.7 9.2 61 9.5 60.2 9.8 59.5 10 59 10.2 59 10.6 59.2 11.8 59.9 13 60.6 14.2 61.3 14.7 61.7 14.9 62.7 14.5 63.3ZM18.3 37.9C16.6 36.6 15.1 35.1 13.8 33.4 13.5 33.1 13.5 32.8 13.8 32.4 15.2 30.5 16.8 28.9 18.7 27.6 19 27.4 19.2 27.5 19.3 27.8 19.9 29.3 20.8 30.6 21.9 31.8 22 31.9 22.1 32.1 22 32.3 22.1 32.9 21.8 33.4 21.3 33.9 20.3 35 19.5 36.2 18.9 37.6 18.8 38.2 18.7 38.2 18.3 37.9ZM19.4 77.4C19.5 77.2 19.5 77.1 19.5 76.9 19.6 75.3 20.5 74.4 22.1 74.2 22.5 74.2 23 74 22.9 74.8 22.9 74.1 23.2 74.1 23.7 74.2 25.7 74.7 26 75 26.4 77.2 26.5 77.9 26.5 77.8 25.8 77.7 24.2 77.5 22.9 77 22.8 75.1 22.7 75.5 22.5 75.9 22.4 76.3 22.2 76.8 21.9 77.1 21.4 77.3 20.8 77.5 20.2 77.6 19.6 77.8 19.5 77.8 19.3 77.8 19.4 77.4ZM23.9 85.5C25.5 85.7 26.2 86.6 26.5 88.1 26.7 89.2 26.7 89.2 25.7 88.9 25.5 88.9 25.4 88.8 25.2 88.8 24 88.6 23.3 88 23.2 86.8 23.2 86.7 23.2 86.6 23.1 86.6 23.1 86.6 23.1 86.5 22.9 86.4 22.8 88.2 21.7 88.8 20.3 89 19.4 89.1 19.4 89.2 19.6 88.3 19.6 88.3 19.6 88.3 19.6 88.2 19.7 86.5 20.7 85.7 22.3 85.5 22.7 85.5 23.1 85.4 23 86.1 23.1 85.4 23.4 85.5 23.9 85.5ZM19.4 81.3C19.5 80.6 19.7 79.9 19.9 79.2 20.1 78.8 20.3 78.5 20.8 78.4 21.2 78.3 21.6 78.2 22.1 78 22.6 77.8 23 77.8 23 78.6 23.1 78 23.2 77.9 23.8 78 25.9 78.5 26 78.5 26.5 81.1 26.6 81.5 26.6 81.8 26.1 81.5 26.1 81.5 26.1 81.5 26 81.5 23.8 81.1 23.7 81 23 78.8 22.9 79.2 22.7 79.6 22.6 80 22.4 80.6 22.1 80.9 21.5 81.1 20.9 81.3 20.3 81.4 19.7 81.5 19.4 81.6 19.4 81.6 19.4 81.3ZM19.4 85.1C19.5 84.3 19.7 83.5 20.1 82.7 20.2 82.5 20.4 82.3 20.7 82.2 21.2 82 21.7 81.9 22.2 81.8 22.7 81.7 23 81.7 23 82.4 23 81.7 23.4 81.8 23.9 81.8 25.5 82 26.2 82.8 26.5 84.4 26.7 85.5 26.7 85.5 25.6 85.2 25.6 85.2 25.5 85.2 25.5 85.2 24.2 85 23.3 84.4 23.2 83 23.2 82.9 23.1 82.8 23.1 82.7 23 82.7 23 82.8 23 82.9 22.5 84.5 21.4 85.3 19.7 85.3 19.4 85.3 19.4 85.2 19.4 85.1ZM25.8 100.3C23.7 99.9 23.7 99.9 23 97.8 23 97.8 22.9 97.8 22.9 97.9 22.4 99.8 21.7 100.4 19.7 100.5 19.4 100.5 19.3 100.4 19.4 100.1 19.5 99.4 19.7 98.7 20 98 20.1 97.7 20.4 97.4 20.7 97.3 21.2 97.1 21.7 97 22.2 96.9 22.6 96.8 23.1 96.7 22.9 97.5 23 96.7 23.4 96.9 23.9 96.9 25.6 97.1 26.2 98.2 26.5 99.7 26.6 100.5 26.6 100.5 25.8 100.3ZM25.8 96.6C24.3 96.3 23.1 95.9 23 94 22.9 95.8 21.7 96.4 20.2 96.6 19.3 96.7 19.4 96.8 19.5 95.9 19.5 95.8 19.5 95.7 19.5 95.7 19.9 93.8 20.5 93.3 22.4 93.1 22.9 93.1 22.8 93.4 22.9 93.7 23 93.1 23.3 93.1 23.8 93.1 25.6 93.3 26.3 94.3 26.5 95.9 26.6 96.7 26.7 96.7 25.8 96.6ZM26 92.8C24.4 92.5 23.1 92.1 23.1 90.1 23 90.3 23 90.3 23 90.3 22.4 92.2 21.8 92.7 19.8 92.9 19.6 92.9 19.5 92.9 19.5 92.6 19.6 91.8 19.8 91 20.1 90.3 20.3 90 20.6 89.8 20.9 89.7 21.4 89.5 21.8 89.5 22.3 89.3 22.8 89.2 23.1 89.2 23.1 89.8 23.2 89.2 23.4 89.2 23.9 89.3 25.9 89.7 26.2 90.1 26.6 92.3 26.6 92.9 26.5 92.9 26 92.8ZM28 51.3C25.9 51.7 23.7 51.6 21.6 51.3 21.2 51.2 21 51 21 50.7 20.7 48.4 20.6 46.1 21.1 43.8 21.2 43.4 21.3 43.3 21.7 43.5 23.5 44.2 25.3 44.6 27.2 44.5 27.5 44.5 27.7 44.6 27.6 45 27.6 45.3 27.6 45.7 27.6 46 27.6 47.7 27.9 49.2 28.5 50.8 28.5 51.1 28.4 51.2 28 51.3ZM31 52.5C30.7 52.6 30.5 52.2 30.6 52 30.7 51.6 31.2 51.5 31.5 51.4 31.8 51.4 31.7 51.8 31.9 52.1 31.7 52.5 31.3 52.4 31 52.5ZM32.9 51.5C32.8 51.2 32.4 50.8 32.8 50.4 32.9 50.3 33.1 50.2 33.2 50 33.3 49.8 33.7 49.7 33.4 49.3 33.2 49 32.9 48.8 32.6 49.2 32.4 49.4 32.3 49.3 32.3 49 32.3 48.5 32 48.6 31.7 48.6 31.3 48.6 31.4 48.9 31.4 49.2 31.4 49.5 31.7 49.9 31.1 50.2 30.1 50.7 30 50.7 29.5 49.6 29.1 48.6 28.8 47.5 28.5 46.4 28.4 45.9 28.5 45.8 29 45.7 30.8 45.5 32.5 45 34.1 44.1 34.6 43.8 34.7 43.9 34.9 44.4 35.3 46 36.1 47.5 37.1 48.8 37.4 49.2 37.4 49.5 36.9 49.8 35.8 50.5 34.7 51.1 33.5 51.5 33.3 51.8 33 51.9 32.9 51.5ZM42.7 69.2C42.6 69.2 42.4 69.1 42.2 69.1 40.1 68.6 40.1 68.6 39.5 66.6 39.3 66.9 39.2 67.3 39.1 67.6 38.9 68.2 38.5 68.6 37.9 68.8 37.5 68.9 37.2 69 36.8 69.1 35.8 69.3 35.9 69.3 36 68.3 36.2 66.7 37 65.8 38.7 65.6 39.1 65.6 39.5 65.4 39.5 66.1 39.5 65.4 39.8 65.5 40.2 65.6 41.9 65.8 42.8 66.7 43 68.5 43 68.6 43.1 68.7 43.1 68.9 43.1 69.1 43 69.3 42.7 69.2ZM42.6 73C42.4 72.9 42.2 72.9 42 72.9 40.6 72.7 39.6 72 39.5 70.3 39.2 70.7 39.2 71.1 39.1 71.4 38.9 72 38.5 72.4 37.9 72.6 37.3 72.7 36.8 72.9 36.2 73 35.8 73.1 35.7 73 35.8 72.6 35.9 72.5 35.9 72.3 35.9 72.1 36.1 70.4 37 69.5 38.7 69.4 39.1 69.4 39.2 69.5 39.4 69.9 39.4 69.4 39.6 69.4 40 69.5 42.3 70 42.3 70.1 42.9 72.7 43.1 72.9 42.9 73 42.6 73ZM42.7 65.4C42.6 65.4 42.5 65.3 42.4 65.3 40.9 65.1 39.7 64.6 39.7 62.6 39.5 62.9 39.5 62.9 39.5 63 39 64.7 38 65.4 36.3 65.4 36 65.4 36 65.3 36.1 65.1 36.2 64.4 36.4 63.7 36.7 63 36.9 62.6 37.1 62.3 37.5 62.2 38 62.1 38.4 62 38.9 61.8 39.3 61.7 39.6 61.7 39.7 62.3 39.8 61.8 39.9 61.7 40.4 61.8 42.7 62.3 42.7 62.4 43.3 65 43.1 65.3 43 65.5 42.7 65.4ZM35.9 76.5C36 75.8 36.2 75.1 36.5 74.4 36.6 74 36.9 73.8 37.2 73.7 37.7 73.5 38.2 73.4 38.6 73.3 39 73.2 39.4 73.1 39.5 73.8 39.5 73.2 39.8 73.2 40.2 73.3 42.3 73.8 42.5 74 42.9 76.1 43.1 77 43.1 77 42.2 76.8 40.8 76.5 39.6 76.1 39.4 74.3 39.4 74.3 39.3 74.4 39.3 74.4 38.8 76.1 37.8 76.8 36 76.8 35.8 76.8 35.9 76.6 35.9 76.5ZM43 80.2C43 80.5 42.9 80.6 42.6 80.5 42.4 80.5 42.3 80.4 42.1 80.4 40.6 80.2 39.6 79.6 39.5 77.8 39.2 78.2 39.1 78.6 39 79 38.8 79.6 38.5 79.9 37.9 80.1 37.4 80.2 36.8 80.4 36.3 80.5 36 80.6 35.7 80.6 35.9 80.1 36 79.9 36 79.8 36 79.6 36.1 78 37.1 77.2 38.6 77 39 76.9 39.4 76.9 39.4 77.5 39.4 76.9 39.7 76.9 40.1 77 40.1 77 40.2 77 40.2 77 42.3 77.5 42.9 78.1 43 80.2ZM35.9 84C35.9 83.8 36 83.7 36 83.5 36.2 81.8 37 80.9 38.7 80.7 39.1 80.7 39.4 80.7 39.5 81.2 39.5 80.8 39.7 80.6 40.1 80.7 42.4 81.2 42.5 81.3 43 83.9 43.1 84.3 43 84.4 42.6 84.3 42.5 84.3 42.4 84.3 42.4 84.3 40.3 83.9 40.2 83.8 39.5 81.8 39.2 82.1 39.2 82.5 39.1 82.8 38.9 83.4 38.6 83.8 38 83.9 37.4 84.1 36.8 84.2 36.3 84.3 35.9 84.4 35.8 84.4 35.9 84ZM42.5 99.4C42.4 99.4 42.4 99.4 42.3 99.4 40.8 99.2 39.5 98.6 39.4 96.8 39.3 97.2 39.1 97.6 39 98 38.8 98.5 38.5 98.8 38 99 37.4 99.2 36.8 99.3 36.2 99.5 35.9 99.6 35.8 99.5 35.9 99.2 35.9 99.1 36 98.9 36 98.7 36.1 97 37.1 96.1 38.8 95.9 39.4 95.8 39.4 96.1 39.5 96.5 39.5 95.9 39.8 95.8 40.3 95.9 42.4 96.4 42.6 96.7 43 98.9 43.1 99.4 43 99.6 42.5 99.4ZM42.3 103.2C40.8 103 39.6 102.4 39.5 100.6 39.4 101 39.2 101.3 39.1 101.7 38.9 102.3 38.5 102.6 38 102.8 37.4 103 36.9 103.1 36.3 103.2 36 103.2 35.9 103.2 36 102.9 36.1 102.2 36.3 101.5 36.6 100.8 36.7 100.4 37 100.2 37.3 100.1 37.8 100 38.2 99.9 38.7 99.7 39.2 99.5 39.6 99.6 39.6 100.2 39.6 99.6 39.9 99.6 40.4 99.6 42.1 99.8 42.9 100.8 43.1 102.4 43.1 103.3 43.2 103.3 42.3 103.2ZM42.4 107C42.4 107 42.4 107 42.4 107 40.8 106.8 39.5 106.2 39.4 104.4 39.4 104.5 39.3 104.7 39.3 104.8 39.1 106 38.4 106.7 37.2 106.9 35.6 107.2 35.7 107.5 36.1 105.8 36.2 105.5 36.2 105.3 36.3 105 36.5 104.4 36.9 104 37.5 103.9 37.9 103.8 38.3 103.7 38.6 103.6 39.1 103.4 39.4 103.5 39.4 104.2 39.4 103.6 39.7 103.6 40.2 103.6 42 103.8 42.7 104.9 42.9 106.6 43.1 107.1 43.1 107.1 42.4 107ZM42.6 95.6C42.5 95.6 42.5 95.6 42.4 95.6 40.9 95.4 39.6 94.9 39.5 93.1 39.5 93.2 39.4 93.3 39.4 93.4 39 94.9 37.8 95.8 36.2 95.7 36 95.7 36 95.6 36 95.5 36.1 94.7 36.3 93.9 36.6 93.2 36.7 92.9 37 92.7 37.3 92.6 37.8 92.5 38.2 92.3 38.7 92.2 39.2 92 39.6 92.1 39.6 92.8 39.6 92.1 39.9 92.1 40.5 92.2 42.5 92.7 42.6 92.7 43.2 95.3 43.1 95.6 43 95.8 42.6 95.6ZM35.9 91.6C36 91.4 36 91.2 36 91 36.1 89.4 37 88.4 38.7 88.3 39.2 88.2 39.5 88.3 39.5 88.9 39.5 88.2 39.8 88.3 40.3 88.3 42.2 88.5 42.8 89.7 43 91.3 43.1 91.8 43 92 42.5 91.8 42.4 91.8 42.4 91.8 42.3 91.8 40.1 91.3 40.1 91.3 39.5 89.2 39.4 89.6 39.2 90 39.1 90.4 38.9 90.9 38.6 91.3 38 91.4 37.4 91.6 36.8 91.7 36.1 91.9 36 91.9 35.8 91.9 35.9 91.6ZM42.8 88.1C42.7 88.1 42.5 88 42.4 88 40.9 87.8 39.6 87.2 39.5 85.4 39.5 85.5 39.4 85.6 39.4 85.8 39 87.3 37.8 88.2 36.2 88.1 36 88.1 35.9 88.1 36 87.8 36.2 87 36.3 86.3 36.6 85.6 36.8 85.2 37.1 85 37.4 84.9 37.8 84.8 38.2 84.7 38.7 84.5 39.2 84.4 39.6 84.3 39.5 85.1 39.5 84.4 39.8 84.4 40.3 84.5 42.3 84.9 43 85.7 43.1 87.8 43.1 88.1 43 88.1 42.8 88.1ZM44.2 53.9C42.8 55.7 41.3 57.2 39.5 58.5 39.2 58.7 39.1 58.6 38.9 58.5 37.1 57.1 35.4 55.6 34.1 53.6 33.8 53.2 33.9 53 34.3 52.8 36 52.1 37.5 51 38.7 49.6 38.8 49.5 38.9 49.4 39 49.3 39.1 49.4 39.2 49.5 39.3 49.6 40.6 51.1 42.2 52.2 44 53 44.5 53.3 44.5 53.5 44.2 53.9ZM47.2 52.2C47.2 52.2 47.2 52.4 47.1 52.5 47 52.8 46.8 52.7 46.6 52.7 46.4 52.6 46.3 52.5 46.4 52.3 46.4 52.2 46.5 52 46.5 51.9 46.6 51.7 46.5 51.4 46.8 51.4 47.2 51.4 47.2 51.8 47.2 52.2ZM47.8 50.6C47.5 50.4 47 50.5 47 49.9 47 49.7 47.1 49.5 47.1 49.3 47.1 49 47.1 48.8 46.7 48.8 46.4 48.8 46.1 48.8 46.1 49.3 46.1 49.6 45.9 49.7 45.7 49.5 45.4 49.1 45.2 49.4 44.9 49.6 44.6 49.9 44.9 50 45.1 50.2 45.3 50.5 45.9 50.6 45.6 51.2 45.2 52.4 45.2 52.4 44.1 51.9 43.1 51.5 42.1 50.9 41.2 50.3 40.8 50 40.7 49.8 41.1 49.4 42 48.2 42.8 47 43.3 45.6 43.4 45.3 43.6 44.9 43.6 44.6 43.7 44.1 43.9 44.1 44.2 44.3 45.7 45.2 47.3 45.6 48.9 45.9 49.2 45.9 49.7 45.9 49.6 46.4 49.4 47.9 49 49.3 48.3 50.5 48.2 50.6 48.1 50.7 47.8 50.6ZM49.9 51.2C49.6 51.1 49.4 51.1 49.6 50.7 50.3 48.9 50.7 47 50.6 45.1 50.6 44.8 50.7 44.7 51 44.7 52.9 44.9 54.7 44.5 56.5 43.9 57.4 43.6 57.4 43.6 57.5 44.5 57.9 46.5 57.7 48.5 57.5 50.5 57.4 51 57.3 51.2 56.7 51.3 55.6 51.4 54.5 51.5 53.4 51.5 52.5 51.5 51.7 51.5 50.8 51.4 50.5 51.4 50.2 51.3 49.9 51.2ZM52.2 61.2C52.5 59.7 53.5 59 55.1 59 55.5 59 55.4 59.4 55.6 59.5 55.6 58.9 55.9 59 56.3 59 58.1 59.2 58.9 60.2 59 61.9 59 62 59.1 62.2 59.1 62.3 59.1 62.5 59.1 62.7 58.8 62.6 58 62.5 57.2 62.3 56.5 61.9 56.1 61.7 56 61.4 55.8 61 55.7 60.7 55.6 60.3 55.5 60 55.3 60.1 55.3 60.3 55.3 60.4 55.1 61.5 54.4 62.1 53.3 62.3 51.5 62.7 51.8 62.9 52.2 61.2ZM51.9 77.4C51.9 77.2 52 77.1 52 76.9 52.4 74.9 52.7 74.6 54.7 74.2 55.1 74.1 55.3 74.1 55.4 74.6 55.5 74.1 55.7 74.1 56.1 74.1 58.2 74.6 58.5 74.8 58.9 77 58.9 77.1 59 77.3 59 77.4 59 77.7 59 77.8 58.7 77.7 58.5 77.7 58.4 77.6 58.2 77.6 56.8 77.4 55.6 76.9 55.6 75 55.4 75.2 55.4 75.2 55.4 75.3 55.2 76.9 54.1 77.4 52.8 77.6 52.7 77.6 52.5 77.6 52.4 77.7 52 77.8 51.8 77.7 51.9 77.4ZM51.9 73.7C51.9 73.5 52 73.4 52 73.2 52.2 71.6 53 70.6 54.7 70.4 55.1 70.4 55.5 70.2 55.5 70.9 55.6 70.2 55.9 70.2 56.3 70.4 56.4 70.4 56.4 70.4 56.5 70.5 58.4 71 59 71.8 59.1 73.7 59.1 74 59 74 58.8 74 58 73.9 57.2 73.7 56.5 73.3 56.2 73.2 56.1 72.9 56 72.7 55.9 72.3 55.7 71.8 55.6 71.4 55.4 71.5 55.5 71.6 55.4 71.7 54.9 73.3 53.9 74.1 52.2 74 52 73.9 51.9 73.9 51.9 73.7ZM58.2 81.4C58.1 81.4 58 81.4 57.9 81.4 56.6 81.2 55.7 80.6 55.6 79.3 55.6 79.2 55.6 79.1 55.4 79 55.3 79.3 55.2 79.7 55.1 80 54.9 80.5 54.6 80.9 54.1 81 53.5 81.2 52.9 81.3 52.3 81.4 52 81.5 51.9 81.3 52 81 52 80.8 52.1 80.7 52.1 80.5 52.7 78.2 52.7 78.3 55 77.7 55.4 77.6 55.5 77.8 55.5 78.2 55.6 77.5 56 77.7 56.4 77.8 58.1 78 58.8 79 59 80.6 59.1 81.6 59.1 81.6 58.2 81.4ZM51.9 85C52 84.2 52.2 83.5 52.5 82.8 52.7 82.5 52.9 82.3 53.2 82.1 53.6 81.9 54.1 81.8 54.5 81.7 54.9 81.6 55.4 81.4 55.4 82.3 55.4 81.5 55.8 81.7 56.3 81.7 58 81.9 58.7 82.8 58.9 84.4 59 85.4 59.1 85.3 58.1 85.1 58 85.1 57.9 85.1 57.8 85 56.6 84.8 55.7 84.3 55.5 82.9 55.5 82.8 55.5 82.7 55.4 82.7 55.4 82.7 55.4 82.7 55.3 82.6 55.3 82.7 55.2 82.7 55.2 82.8 54.7 84.5 53.8 85.2 52 85.2 51.9 85.3 51.9 85.1 51.9 85ZM52 88.5C52.1 88.2 52.2 87.8 52.2 87.5 52.4 86.4 53 85.9 54 85.7 54.2 85.7 54.5 85.6 54.7 85.5 55.1 85.4 55.4 85.4 55.4 86 55.5 85.1 56 85.4 56.5 85.5 56.5 85.5 56.6 85.5 56.6 85.5 58 85.7 58.6 86.5 58.9 87.8 59.2 89.2 59.2 89.1 57.9 88.8 56.5 88.5 55.6 87.9 55.6 86.3 55.5 86.3 55.5 86.3 55.4 86.4 55.3 86.7 55.2 87 55.1 87.3 54.9 88.1 54.4 88.5 53.7 88.7 53.3 88.8 52.8 88.9 52.4 89 51.9 89.1 51.8 89 52 88.5ZM59.1 96.2C59.1 96.6 59 96.6 58.7 96.5 58.6 96.5 58.5 96.4 58.4 96.4 57 96.2 55.7 95.7 55.7 93.8 55.4 94.2 55.3 94.6 55.2 95 55 95.6 54.6 95.9 54.1 96.1 53.5 96.3 52.9 96.4 52.3 96.5 52 96.5 52 96.4 52 96.2 52.2 95.5 52.3 94.8 52.6 94.1 52.7 93.8 53 93.5 53.3 93.4 53.7 93.2 54.2 93.1 54.6 93 55.1 92.9 55.5 92.7 55.6 93.5 55.6 92.8 56 92.8 56.4 92.9 56.4 92.9 56.4 92.9 56.5 92.9 58.4 93.5 58.9 94.2 59.1 96.2ZM58.7 70.1C58.6 70.1 58.5 70.1 58.4 70.1 57 69.8 55.6 69.5 55.6 67.5 55.4 67.6 55.4 67.6 55.4 67.6 54.8 69.5 54.1 70 52.2 70.1 51.9 70.1 51.9 70 51.9 69.8 52.1 69.1 52.2 68.3 52.5 67.6 52.6 67.3 52.9 67.1 53.2 66.9 53.7 66.7 54.2 66.6 54.7 66.5 55.1 66.4 55.4 66.2 55.4 67.1 55.7 66.4 55.7 66.4 56.3 66.5 58.4 67 58.6 67.2 59 69.4 59 69.5 59 69.6 59.1 69.7 59.1 70.1 59.1 70.3 58.7 70.1ZM52 65.5C52 65.5 52 65.4 52 65.4 52.2 63.7 53.2 62.9 54.8 62.7 55.2 62.7 55.4 62.7 55.4 63.1 55.5 62.6 55.8 62.6 56.2 62.7 58.1 63.1 58.6 63.5 58.9 65.4 58.9 65.6 59 65.8 59 65.9 59.1 66.2 59 66.3 58.7 66.2 58.4 66.1 58.2 66.1 57.9 66 56.6 65.8 55.7 65.1 55.6 63.7 55.6 63.6 55.5 63.6 55.5 63.6 55.3 65.3 54.2 65.8 52.7 66.1 51.8 66.4 51.8 66.5 52 65.5ZM51.9 92.5C51.9 92.3 52 92.2 52 92 52.6 89.6 52.6 89.8 54.9 89.2 55.3 89.1 55.3 89.4 55.5 89.8 55.6 89 56 89.2 56.4 89.3 58 89.5 58.7 90.4 58.9 91.9 59 93 59.1 93 58.1 92.7 58.1 92.7 58.1 92.7 58 92.7 56.6 92.5 55.5 91.9 55.5 90.2 55.4 90.2 55.4 90.2 55.3 90.3 55.2 90.7 55 91.1 54.9 91.5 54.7 92 54.4 92.3 53.9 92.5 53.3 92.7 52.7 92.8 52.1 93 51.9 92.9 51.9 92.8 51.9 92.5ZM58.6 100.4C57.1 100.1 55.6 99.8 55.6 97.7 55.6 97.7 55.5 97.8 55.5 97.8 55.4 98.2 55.3 98.5 55.1 98.9 54.9 99.4 54.6 99.8 54 100 53.4 100.2 52.8 100.3 52.2 100.4 51.9 100.5 51.8 100.3 51.9 100.1 52.1 99.5 52.2 98.8 52.4 98.2 52.5 97.7 52.8 97.4 53.3 97.3 53.8 97.2 54.2 97 54.7 96.9 55 96.8 55.5 96.6 55.5 97.4 55.6 96.8 55.8 96.8 56.2 96.9 58.4 97.4 58.6 97.6 59.1 100 59.2 100.4 59.1 100.5 58.6 100.4ZM59.7 38.3C59.6 38.4 59.5 38.4 59.4 38.5 59.1 38.4 59.1 38.2 59 38 58.3 36.5 57.5 35.1 56.3 33.9 55.6 33.2 55.6 33.2 56.3 32.5 57.5 31.3 58.5 29.9 59.2 28.4 59.5 27.7 59.5 27.7 60.1 28.2 61.8 29.5 63.2 31 64.5 32.6 64.7 32.9 64.8 33.2 64.5 33.5 63.2 35.3 61.7 37 59.7 38.3ZM71.6 66.5C71.3 66.5 71 66.5 70.6 66.5 67.9 66.5 65.8 65.3 64.1 63.3 63.5 62.7 63.8 61.7 64.5 61.3 65.7 60.6 66.9 59.9 68.1 59.1 68.4 58.9 68.6 58.9 68.7 59.3 69.5 61.6 70.4 63.9 71.8 66 72.1 66.4 71.9 66.5 71.6 66.5Z" fill="#467E6A"/><path d="M38.8 33.3C38.8 33.2 38.8 33.2 38.8 33.1 38.9 32.9 39 32.8 39.1 32.9 39.1 32.9 39.2 33 39.2 33 39.2 33.2 39 33.2 38.9 33.3 39 33.3 38.9 33.3 38.8 33.3 38.8 33.3 38.8 33.3 38.8 33.3Z" fill="#467E6A"/><path d="M40.4 34.2C40.4 34.2 40.4 34.2 40.4 34.2 40.3 34.3 40.3 34.2 40.3 34.2 40.3 34.2 40.3 34.1 40.4 34.2 40.4 34.1 40.4 34.2 40.4 34.2Z" fill="#467E6A"/><path d="M40.3 31.8C40.3 31.9 40.4 31.9 40.3 31.8 40.4 31.9 40.3 31.9 40.3 31.8 40.3 31.9 40.3 31.9 40.3 31.8 40.3 31.9 40.3 31.9 40.3 31.8Z" fill="#467E6A"/><path d="M38.2 33.9C38.2 33.9 38.3 33.8 38.3 33.8 38.3 33.8 38.3 33.8 38.3 33.8 38.3 33.8 38.3 33.9 38.2 33.9 38.2 33.9 38.2 33.9 38.2 33.9Z" fill="#467E6A"/><path d="M38.7 33.4C38.7 33.4 38.6 33.5 38.6 33.5L38.6 33.5C38.6 33.5 38.7 33.5 38.7 33.4L38.7 33.4Z" fill="#467E6A"/><path d="M38.5 33.7C38.5 33.7 38.4 33.8 38.4 33.8 38.4 33.8 38.4 33.8 38.4 33.8 38.4 33.8 38.4 33.7 38.5 33.7 38.5 33.7 38.5 33.7 38.5 33.7Z" fill="#467E6A"/><path d="M38.7 33.4C38.7 33.4 38.8 33.3 38.8 33.3 38.8 33.3 38.8 33.3 38.8 33.3 38.8 33.4 38.8 33.4 38.7 33.4 38.7 33.4 38.7 33.4 38.7 33.4Z" fill="#467E6A"/><path d="M38.6 33.6C38.6 33.6 38.5 33.7 38.5 33.7 38.5 33.7 38.5 33.7 38.5 33.7 38.5 33.6 38.6 33.6 38.6 33.6 38.6 33.6 38.6 33.6 38.6 33.6Z" fill="#467E6A"/><path d="M38.1 34C38.1 34 38.2 33.9 38.2 33.9 38.2 33.9 38.2 33.9 38.2 33.9 38.2 34 38.2 34 38.1 34 38.1 34 38.1 34 38.1 34Z" fill="#467E6A"/><path d="M26.4 48C26.4 49.3 25.4 50.3 24.1 50.3 22.9 50.3 22 49.3 21.9 48.1 21.9 46.9 22.9 45.8 24.1 45.8 25.4 45.8 26.4 46.8 26.4 48Z" fill="#467E6A"/><path d="M54.2 20.1C53 20.1 52 19.1 52 17.9 52 16.7 53.1 15.6 54.3 15.7 55.4 15.7 56.4 16.8 56.4 18 56.4 19.2 55.5 20.2 54.2 20.1Z" fill="#467E6A"/><path d="M56.4 48.1C56.4 49.3 55.4 50.3 54.2 50.3 53 50.3 52 49.3 52 48.1 52 46.9 53 45.9 54.2 45.9 55.4 45.8 56.4 46.8 56.4 48.1Z" fill="#467E6A"/><path d="M24.2 20.1C23 20.1 22 19.2 22 17.9 22 16.7 23 15.7 24.3 15.7 25.4 15.7 26.4 16.8 26.4 17.9 26.4 19.2 25.5 20.1 24.2 20.1Z" fill="#467E6A"/><path d="M41.5 54.3C41.3 55.8 40.5 56.5 39.1 56.5 37.9 56.5 36.9 55.3 36.9 54.1 37 53 38.2 52 39.3 52 40.4 52.1 41.5 53.2 41.5 54.3Z" fill="#467E6A"/><path d="M62.7 33C62.7 34.3 61.8 35.2 60.5 35.2 59.2 35.2 58.2 34.2 58.2 32.9 58.2 31.7 59.2 30.8 60.3 30.8 61.7 30.8 62.7 31.7 62.7 33Z" fill="#467E6A"/><path d="M20.2 33C20.2 34.3 19.2 35.2 18 35.2 16.8 35.2 15.8 34.2 15.8 33 15.8 31.7 16.8 30.8 18.1 30.8 19.2 30.8 20.2 31.8 20.2 33Z" fill="#467E6A"/><path d="M37 11.7C37 10.4 38 9.4 39.2 9.5 40.3 9.5 41.4 10.6 41.4 11.7 41.4 12.9 40.4 14 39.1 14 38 14 37 13 37 11.7Z" fill="#467E6A"/></svg>