<svg width="70" height="147" xmlns="http://www.w3.org/2000/svg" xmlns:xlink="http://www.w3.org/1999/xlink" overflow="hidden"><defs><clipPath id="clip0"><path d="M1 488 71 488 71 635 1 635Z" fill-rule="evenodd" clip-rule="evenodd"/></clipPath><clipPath id="clip1"><path d="M1 488 70 488 70 635 1 635Z" fill-rule="evenodd" clip-rule="evenodd"/></clipPath><clipPath id="clip2"><path d="M1 488 70 488 70 635 1 635Z" fill-rule="evenodd" clip-rule="evenodd"/></clipPath><clipPath id="clip3"><path d="M-57 488 70 488 70 635-57 635Z" fill-rule="evenodd" clip-rule="evenodd"/></clipPath></defs><g clip-path="url(#clip0)" transform="translate(-1 -488)"><g clip-path="url(#clip1)"><g clip-path="url(#clip2)"><g clip-path="url(#clip3)"><path d="M122.3 56.5375C122.3 56.5375 122.3 56.5375 122.3 56.5375 120.455 56.4057 118.742 56.9329 117.556 57.8554 114.92 59.8322 111.757 61.0183 108.462 61.0183L103.191 61.0183C101.346 61.0183 99.6325 59.7005 99.369 57.8554 99.2372 57.0647 99.1054 56.2739 98.9736 55.4832 98.5782 53.5064 99.7643 51.6613 101.741 51.266 103.718 50.8706 105.827 50.607 107.145 50.8706 108.199 51.0024 109.253 51.0024 110.307 50.4752 110.571 50.3434 110.835 50.2116 111.098 50.0799 112.811 49.0255 113.47 46.7851 112.811 44.8083L111.757 42.1725C110.966 40.1957 108.726 39.1414 106.617 39.6685L106.617 39.6685C105.168 40.0639 104.113 40.9864 103.323 42.1725 102.664 43.2268 101.214 44.5447 99.7643 45.599 98.1829 46.7851 95.8107 46.3898 94.7564 44.5447 94.361 43.8858 93.8338 43.095 93.3067 42.4361 92.2524 40.9864 92.3841 38.8778 93.702 37.5599L97.9193 33.3426C100.16 31.1022 103.059 29.6525 106.222 28.9936 107.408 28.73 108.594 28.0711 109.517 27.1486 109.78 26.885 109.912 26.7532 110.176 26.4896 111.757 24.381 111.494 21.6134 109.649 19.7684L107.276 17.3962C105.431 15.5511 102.4 15.2875 100.423 17.0008L100.423 17.0008C98.9736 18.1869 98.1829 19.6366 97.9193 21.3498 97.3921 24.5128 96.0742 27.5439 93.8338 29.7843L90.0119 33.6062C88.6941 34.9241 86.5854 35.0559 85.004 34.0016 84.345 33.4744 83.6861 33.0791 82.8953 32.5519 81.1821 31.4976 80.7867 29.2572 81.841 27.6757 82.8953 26.0942 84.345 24.2492 85.3993 23.5902 86.1901 23.0631 86.9808 22.1406 87.3762 21.0863 87.508 20.8227 87.508 20.5591 87.6397 20.2955 88.1669 18.3187 86.9808 16.2101 85.004 15.4193L82.3682 14.365C80.3913 13.5743 78.0191 14.365 76.9648 16.2101L76.9648 16.2101C76.3059 17.5279 76.1741 18.9776 76.4377 20.2955 76.7012 21.4816 76.5695 23.4585 76.3059 25.3035 76.0423 27.2803 74.0655 28.5982 71.9568 28.2029 71.1661 27.9393 70.3754 27.8075 69.4529 27.6757 67.6078 27.4121 66.2899 25.8307 66.2899 23.9856L66.2899 18.0551C66.2899 14.8922 67.3442 11.861 69.0575 9.09345 69.98 7.90735 70.3754 6.72124 70.3754 5.27156 70.3754 5.00799 70.3754 4.61262 70.3754 4.34904 69.8482 1.84505 67.6078 0 65.1038 0L61.8091 0C59.1733 0 56.9329 1.97684 56.6693 4.61262L56.6693 4.61262C56.5375 6.45767 57.0647 8.03913 57.9872 9.35703 59.964 11.9928 61.1501 15.1557 61.1501 18.4505L61.1501 23.722C61.1501 25.5671 59.8322 27.2803 57.9872 27.5439 57.1965 27.6757 56.4057 27.8075 55.615 27.9393 53.6382 28.3347 51.7931 27.1486 51.3977 25.1717 51.0024 23.3267 50.7388 21.0863 51.0024 19.7684 51.1342 18.7141 51.1342 17.6597 50.607 16.6054 50.4752 16.3418 50.3434 16.0783 50.2116 15.9465 49.1573 14.1014 46.7851 13.4425 44.9401 14.2332L42.3043 15.2875C40.3275 16.0783 39.2731 18.3187 39.8003 20.4273L39.8003 20.4273C40.1957 21.877 41.1182 22.9313 42.3043 23.722 43.3586 24.381 44.6765 25.8307 45.7308 27.2803 46.9169 28.9936 46.5215 31.234 44.6765 32.2883 44.0176 32.6837 43.2268 33.2108 42.5679 33.738 40.9864 34.7923 39.0096 34.5287 37.6917 33.3426L33.4744 29.1254C31.234 26.885 29.7843 23.9856 29.1254 20.8227 28.8618 19.6366 28.2029 18.4505 27.2803 17.5279 27.0168 17.2644 26.885 17.1326 26.6214 16.869 24.6446 15.2875 21.7452 15.5511 19.9002 17.3962L17.3962 19.7684C15.5511 21.6134 15.4193 24.6446 17.0008 26.6214L17.0008 26.6214C18.1869 28.0711 19.7684 28.8618 21.3498 29.1254 24.5128 29.6525 27.5439 30.9704 29.7843 33.2108L33.738 37.1645C35.0559 38.4824 35.1877 40.591 34.1334 42.1725 33.6062 42.8315 33.2108 43.4904 32.6837 44.1493 31.6294 45.8626 29.389 46.258 27.8075 45.2037 26.226 44.1493 24.381 42.6997 23.722 41.6454 23.1949 40.7228 22.2724 40.0639 21.218 39.6685 20.9545 39.5367 20.6909 39.4049 20.4273 39.4049 18.4505 38.8778 16.3418 40.0639 15.5511 41.9089L14.4968 44.5447C13.7061 46.5215 14.4968 48.8937 16.3418 49.9481L16.3418 49.9481C17.6597 50.607 19.1094 50.7388 20.4273 50.4752 21.6134 50.2116 23.5902 50.3434 25.3035 50.607 27.2803 50.8706 28.5982 52.8474 28.2029 54.9561 27.9393 55.7468 27.8075 56.5375 27.6757 57.46 27.4121 59.3051 25.6989 60.623 23.8538 60.623L17.9233 60.623C14.7604 60.623 11.5974 59.5687 8.96166 57.8554 7.90735 56.9329 6.72124 56.5375 5.27156 56.5375 5.00799 56.5375 4.61262 56.5375 4.34904 56.5375 1.84505 56.9329 0 59.1733 0 61.6773L0 64.972C0 67.6078 1.97684 69.8482 4.61262 70.1118L4.61262 70.1118C6.32588 70.2436 8.03913 69.7164 9.35703 68.7939 11.9928 66.8171 15.1557 65.631 18.4505 65.631L23.722 65.631C25.5671 65.631 27.1486 66.9489 27.5439 68.7939 27.6757 69.5846 27.8075 70.3754 28.0711 71.1661 28.4664 73.1429 27.2803 74.988 25.3035 75.3834 23.3267 75.7787 21.218 76.0423 19.9002 75.7787 18.8458 75.6469 17.7915 75.6469 16.7372 76.1741 16.4736 76.3059 16.2101 76.4377 15.9465 76.5695 14.2332 77.6238 13.5743 79.8642 14.2332 81.841 14.6286 82.6318 15.024 83.5543 15.2875 84.4768 16.0783 86.4536 18.3187 87.508 20.4273 86.9808L20.4273 86.9808C21.877 86.5854 22.9313 85.6629 23.722 84.4768 24.381 83.4225 25.8307 82.1046 27.2803 81.0503 28.9936 79.8642 31.234 80.2596 32.2883 82.1046 32.6837 82.7635 33.2108 83.5543 33.738 84.2132 34.7923 85.6629 34.6605 87.7715 33.3426 89.0894L29.1254 93.3067C26.885 95.5471 23.9856 96.9968 20.8227 97.6557 19.6366 97.9193 18.4505 98.5782 17.5279 99.5008 17.2644 99.7643 17.1326 100.028 16.869 100.291 15.2875 102.268 15.5511 105.168 17.3962 107.013L20.0319 109.649C21.7452 111.494 24.6446 111.494 26.6214 109.912 26.6214 109.912 26.7532 109.912 26.7532 109.78 28.2029 108.594 28.9936 107.145 29.1254 105.431 29.6525 102.268 30.9704 99.2372 33.2108 96.9968L37.1645 93.0431C38.4824 91.7252 40.591 91.5934 42.0407 92.6477 42.6997 93.1749 43.3586 93.5703 44.1493 93.9656 45.8626 95.0199 46.258 97.2604 45.2037 98.8418 44.1493 100.423 42.6997 102.268 41.6454 102.927 40.7228 103.454 40.0639 104.377 39.6685 105.431 39.5367 105.695 39.4049 105.958 39.4049 106.222 38.8778 108.199 40.0639 110.307 42.0407 111.098L44.6765 112.153C46.6533 112.943 49.0255 112.153 50.0799 110.307L50.0799 110.307C50.7388 108.99 51.0024 107.54 50.607 106.222 50.3434 105.036 50.4752 103.059 50.7388 101.214 51.0024 99.2372 52.9792 97.9193 55.0878 98.3147 55.8786 98.5782 56.6693 98.71 57.5918 98.8418 59.4369 99.1054 60.7548 100.819 60.7548 102.664L60.7548 108.594C60.7548 111.757 59.7005 114.92 57.9872 117.556 57.3283 118.61 56.9329 119.928 56.9329 121.246 56.9329 121.641 56.9329 121.905 57.0647 122.168 57.46 124.672 59.7005 126.518 62.2045 126.518L65.4992 126.518C68.135 126.518 70.3754 124.541 70.6389 121.905L70.6389 121.773C70.7707 120.06 70.2436 118.347 69.3211 117.029 67.3442 114.393 66.1581 111.23 66.1581 107.935L66.1581 102.664C66.1581 100.819 67.476 99.2372 69.3211 98.8418 70.1118 98.71 70.9025 98.5782 71.6933 98.4464 73.6701 98.0511 75.5151 99.2372 75.9105 101.214 76.3059 103.191 76.5695 105.299 76.3059 106.617 76.1741 107.672 76.1741 108.726 76.7012 109.78 76.833 110.044 76.9648 110.307 77.0966 110.571 78.1509 112.416 80.3913 113.075 82.3682 112.284L85.004 111.23C86.9808 110.439 88.0351 108.199 87.508 106.09L87.508 106.09C87.1126 104.641 86.1901 103.586 85.004 102.795 83.9497 102.137 82.6318 100.687 81.5774 99.2372 80.3913 97.5239 80.7867 95.2835 82.6318 94.2292 83.4225 93.8338 84.0814 93.3067 84.7404 92.9113 86.1901 91.857 88.2987 91.9888 89.6166 93.3067L93.8338 97.5239C96.0742 99.7643 97.5239 102.664 98.1829 105.827 98.4464 107.013 99.1054 108.199 100.028 109.121 100.291 109.385 100.555 109.517 100.687 109.78 102.664 111.362 105.563 110.966 107.408 109.253L109.78 106.881C111.625 105.036 111.757 102.137 110.176 100.028L110.176 100.028C108.99 98.5782 107.408 97.7875 105.827 97.5239 102.664 97.1286 99.6325 95.8107 97.3921 93.4385L93.5703 89.4848C92.2524 88.1669 91.9888 86.0583 93.1749 84.4768 93.702 83.8179 94.0974 83.1589 94.6246 82.5 95.6789 80.7867 97.9193 80.3913 99.5008 81.4457 101.082 82.5 102.927 83.9497 103.586 85.004 104.245 85.9265 105.036 86.5854 106.09 86.9808 106.354 87.1126 106.617 87.2444 106.881 87.2444 108.858 87.7715 110.966 86.5854 111.757 84.7404L112.811 82.1046C113.602 80.1278 112.811 77.7556 110.966 76.7012L110.966 76.7012C109.649 76.0423 108.199 75.9105 106.881 76.1741 105.695 76.4377 103.718 76.3059 101.873 76.0423 99.8961 75.7787 98.5782 73.8019 98.9736 71.6933 99.1054 70.9025 99.369 70.1118 99.5008 69.1893 99.7643 67.3442 101.478 66.0263 103.323 66.0263L109.253 66.0263C112.416 66.0263 115.579 67.0807 118.215 68.7939 119.269 69.4529 120.587 69.8482 121.905 69.8482 122.168 69.8482 122.564 69.8482 122.827 69.8482 125.331 69.4529 127.176 67.2124 127.176 64.7084L127.176 61.4137C126.913 59.1733 124.936 56.9329 122.3 56.5375ZM69.0575 37.6917C71.9568 37.6917 74.329 40.0639 74.329 42.9632 74.329 45.8626 71.9568 48.2348 69.0575 48.2348 66.1581 48.2348 63.7859 45.8626 63.7859 42.9632 63.7859 40.0639 66.1581 37.6917 69.0575 37.6917ZM65.3674 56.6693C67.7396 56.6693 69.5846 58.5144 69.5846 60.7548 69.5846 63.127 67.7396 64.972 65.3674 64.972 63.127 64.972 61.2819 63.127 61.2819 60.7548 61.2819 58.5144 63.127 56.6693 65.3674 56.6693ZM62.468 75.1198C64.8402 75.1198 66.6853 76.9648 66.6853 79.337 66.6853 81.5774 64.8402 83.5543 62.468 83.5543 60.2276 83.5543 58.2508 81.7092 58.2508 79.337 58.3826 76.9648 60.2276 75.1198 62.468 75.1198ZM49.4209 42.9632C51.6613 42.9632 53.5064 44.8083 53.5064 47.0487 53.5064 49.2891 51.6613 51.266 49.4209 51.266 47.0487 51.266 45.2037 49.4209 45.2037 47.0487 45.2037 44.6765 47.0487 42.9632 49.4209 42.9632ZM48.2348 61.2819C51.1342 61.2819 53.5064 63.6541 53.5064 66.5535 53.5064 69.4529 51.1342 71.8251 48.2348 71.8251 45.3354 71.8251 42.9632 69.4529 42.9632 66.5535 42.9632 63.6541 45.3354 61.2819 48.2348 61.2819ZM81.0503 87.508C75.5151 92.1206 68.3985 94.361 61.0183 94.0974 45.9944 93.5703 33.6062 81.1821 32.6837 66.1581 32.4201 60.623 33.6062 55.2196 36.242 50.4752 36.6374 49.8163 37.4281 50.2116 37.2963 50.8706 36.3738 54.0335 35.9784 57.3283 36.242 60.7548 37.0327 76.4377 49.8163 89.2212 65.4992 89.8802 70.6389 90.1437 75.7787 88.9576 80.3913 86.7172 81.0503 86.1901 81.5774 87.1126 81.0503 87.508ZM80.1278 76.833C77.8874 76.833 75.9105 74.988 75.9105 72.6158 75.9105 70.3754 77.7556 68.3985 80.1278 68.3985 82.5 68.3985 84.345 70.2436 84.345 72.6158 84.2132 74.988 82.3682 76.833 80.1278 76.833ZM85.3993 61.8091C83.1589 61.8091 81.1821 59.964 81.1821 57.5918 81.1821 55.3514 83.0271 53.5064 85.3993 53.5064 87.6397 53.5064 89.4848 55.3514 89.4848 57.5918 89.4848 59.8322 87.6397 61.8091 85.3993 61.8091Z" fill="#B5D6CA" transform="matrix(-1 -8.74228e-08 -1.0126e-07 1.15827 70 488)"/></g></g></g></g></svg>