<svg width="60" height="61" xmlns="http://www.w3.org/2000/svg" xmlns:xlink="http://www.w3.org/1999/xlink" overflow="hidden"><defs><clipPath id="clip0"><path d="M1127 275 1187 275 1187 336 1127 336Z" fill-rule="evenodd" clip-rule="evenodd"/></clipPath><clipPath id="clip1"><path d="M1128 276 1187 276 1187 335 1128 335Z" fill-rule="evenodd" clip-rule="evenodd"/></clipPath><clipPath id="clip2"><path d="M1129 276 1187 276 1187 335 1129 335Z" fill-rule="evenodd" clip-rule="evenodd"/></clipPath><clipPath id="clip3"><path d="M1129 276 1187 276 1187 335 1129 335Z" fill-rule="evenodd" clip-rule="evenodd"/></clipPath></defs><g clip-path="url(#clip0)" transform="translate(-1127 -275)"><g clip-path="url(#clip1)"><g clip-path="url(#clip2)"><g clip-path="url(#clip3)"><path d="M55.4262 25.6227C55.4262 25.6227 55.4262 25.6227 55.4262 25.6227 54.59 25.563 53.8136 25.8019 53.2761 26.2199 52.0815 27.1158 50.6481 27.6534 49.1549 27.6534L46.7659 27.6534C45.9297 27.6534 45.1533 27.0561 45.0338 26.2199 44.9741 25.8616 44.9143 25.5032 44.8546 25.1449 44.6754 24.249 45.213 23.4128 46.1089 23.2336 47.0048 23.0544 47.9604 22.935 48.5577 23.0544 49.0355 23.1142 49.5133 23.1142 49.9911 22.8753 50.1106 22.8155 50.23 22.7558 50.3495 22.6961 51.1259 22.2183 51.4245 21.2029 51.1259 20.307L50.6481 19.1125C50.2897 18.2166 49.2744 17.7388 48.3188 17.9777L48.3188 17.9777C47.6618 18.1569 47.184 18.5749 46.8256 19.1125 46.527 19.5903 45.87 20.1876 45.213 20.6654 44.4963 21.2029 43.4212 21.0237 42.9434 20.1876 42.7642 19.8889 42.5253 19.5306 42.2864 19.2319 41.8086 18.5749 41.8683 17.6193 42.4656 17.0221L44.3768 15.1108C45.3922 14.0955 46.7061 13.4385 48.1396 13.1398 48.6771 13.0204 49.2147 12.7217 49.6327 12.3037 49.7522 12.1842 49.8119 12.1245 49.9314 12.005 50.6481 11.0494 50.5286 9.79515 49.6925 8.95898L48.6174 7.8839C47.7812 7.04773 46.4075 6.92828 45.5116 7.70472L45.5116 7.70472C44.8546 8.24226 44.4963 8.89925 44.3768 9.6757 44.1379 11.1091 43.5406 12.4828 42.5253 13.4982L40.7932 15.2303C40.196 15.8275 39.2403 15.8873 38.5236 15.4094 38.225 15.1705 37.9263 14.9914 37.568 14.7525 36.7915 14.2746 36.6124 13.2593 37.0902 12.5426 37.568 11.8259 38.225 10.9897 38.7028 10.691 39.0611 10.4521 39.4195 10.0341 39.5987 9.55624 39.6584 9.43679 39.6584 9.31734 39.7181 9.19788 39.957 8.30199 39.4195 7.34636 38.5236 6.988L37.3291 6.51019C36.4332 6.15183 35.3581 6.51019 34.8803 7.34636L34.8803 7.34636C34.5817 7.94363 34.5219 8.60062 34.6414 9.19788 34.7608 9.73542 34.7011 10.6313 34.5817 11.4675 34.4622 12.3634 33.5663 12.9607 32.6107 12.7815 32.2523 12.662 31.894 12.6023 31.4759 12.5426 30.6397 12.4231 30.0424 11.7064 30.0424 10.8702L30.0424 8.18253C30.0424 6.7491 30.5203 5.37539 31.2967 4.12113 31.7148 3.58359 31.894 3.04605 31.894 2.38906 31.894 2.26961 31.894 2.09043 31.894 1.97098 31.6551 0.836171 30.6397 0 29.5049 0L28.0117 0C26.8172 0 25.8019 0.895898 25.6824 2.09043L25.6824 2.09043C25.6227 2.9266 25.8616 3.64332 26.2797 4.24058 27.1756 5.43511 27.7131 6.86855 27.7131 8.36171L27.7131 10.7508C27.7131 11.5869 27.1158 12.3634 26.2797 12.4828 25.9213 12.5426 25.563 12.6023 25.2046 12.662 24.3087 12.8412 23.4725 12.3037 23.2933 11.4078 23.1142 10.5716 22.9947 9.55624 23.1142 8.95898 23.1739 8.48117 23.1739 8.00335 22.935 7.52554 22.8753 7.40609 22.8155 7.28664 22.7558 7.22691 22.278 6.39074 21.2029 6.09211 20.3667 6.45046L19.1722 6.92828C18.2763 7.28664 17.7985 8.30199 18.0374 9.25761L18.0374 9.25761C18.2166 9.9146 18.6347 10.3924 19.1722 10.7508 19.65 11.0494 20.2473 11.7064 20.7251 12.3634 21.2626 13.1398 21.0835 14.1552 20.2473 14.633 19.9487 14.8122 19.5903 15.0511 19.2917 15.29 18.5749 15.7678 17.6791 15.6483 17.0818 15.1108L15.1705 13.1996C14.1552 12.1842 13.4982 10.8702 13.1996 9.43679 13.0801 8.89925 12.7815 8.36171 12.3634 7.94363 12.2439 7.82417 12.1842 7.76445 12.0648 7.645 11.1689 6.92828 9.85488 7.04773 9.01871 7.8839L7.8839 8.95898C7.04773 9.79515 6.988 11.1689 7.70472 12.0648L7.70472 12.0648C8.24226 12.7217 8.95898 13.0801 9.6757 13.1996 11.1091 13.4385 12.4828 14.0357 13.4982 15.0511L15.29 16.8429C15.8873 17.4401 15.947 18.3958 15.4692 19.1125 15.2303 19.4111 15.0511 19.7098 14.8122 20.0084 14.3344 20.7848 13.319 20.964 12.6023 20.4862 11.8856 20.0084 11.0494 19.3514 10.7508 18.8736 10.5119 18.4555 10.0938 18.1569 9.61597 17.9777 9.49652 17.918 9.37706 17.8582 9.25761 17.8582 8.36171 17.6193 7.40609 18.1569 7.04773 18.993L6.56992 20.1876C6.21156 21.0835 6.56992 22.1585 7.40609 22.6364L7.40609 22.6364C8.00335 22.935 8.66035 22.9947 9.25761 22.8753 9.79515 22.7558 10.691 22.8155 11.4675 22.935 12.3634 23.0544 12.9607 23.9503 12.7815 24.906 12.662 25.2643 12.6023 25.6227 12.5426 26.0408 12.4231 26.8769 11.6467 27.4742 10.8105 27.4742L8.12281 27.4742C6.68937 27.4742 5.25593 26.9964 4.0614 26.2199 3.58359 25.8019 3.04605 25.6227 2.38906 25.6227 2.26961 25.6227 2.09043 25.6227 1.97098 25.6227 0.836171 25.8019 0 26.8172 0 27.952L0 29.4452C0 30.6397 0.895898 31.6551 2.09043 31.7745L2.09043 31.7745C2.86687 31.8342 3.64332 31.5953 4.24058 31.1772 5.43511 30.2813 6.86855 29.7438 8.36171 29.7438L10.7508 29.7438C11.5869 29.7438 12.3037 30.3411 12.4828 31.1772 12.5426 31.5356 12.6023 31.894 12.7217 32.2523 12.9009 33.1482 12.3634 33.9844 11.4675 34.1636 10.5716 34.3428 9.61597 34.4622 9.01871 34.3428 8.54089 34.283 8.06308 34.283 7.58527 34.5219 7.46582 34.5817 7.34636 34.6414 7.22691 34.7011 6.45046 35.1789 6.15183 36.1943 6.45046 37.0902 6.62964 37.4485 6.80882 37.8666 6.92828 38.2847 7.28664 39.1806 8.30199 39.6584 9.25761 39.4195L9.25761 39.4195C9.9146 39.2403 10.3924 38.8222 10.7508 38.2847 11.0494 37.8069 11.7064 37.2096 12.3634 36.7318 13.1398 36.1943 14.1552 36.3735 14.633 37.2096 14.8122 37.5083 15.0511 37.8666 15.29 38.1652 15.7678 38.8222 15.7081 39.7779 15.1108 40.3751L13.1996 42.2864C12.1842 43.3017 10.8702 43.9587 9.43679 44.2574 8.89925 44.3768 8.36171 44.6754 7.94363 45.0935 7.82417 45.213 7.76445 45.3324 7.645 45.4519 6.92828 46.3478 7.04773 47.6618 7.8839 48.4979L9.07843 49.6925C9.85488 50.5286 11.1689 50.5286 12.0648 49.8119 12.0648 49.8119 12.1245 49.8119 12.1245 49.7522 12.7815 49.2147 13.1398 48.5577 13.1996 47.7812 13.4385 46.3478 14.0357 44.9741 15.0511 43.9587L16.8429 42.1669C17.4401 41.5697 18.3958 41.5099 19.0528 41.9877 19.3514 42.2267 19.65 42.4058 20.0084 42.585 20.7848 43.0628 20.964 44.0782 20.4862 44.7949 20.0084 45.5116 19.3514 46.3478 18.8736 46.6464 18.4555 46.8853 18.1569 47.3034 17.9777 47.7812 17.918 47.9007 17.8582 48.0201 17.8582 48.1396 17.6193 49.0355 18.1569 49.9911 19.0528 50.3495L20.2473 50.8273C21.1432 51.1856 22.2183 50.8273 22.6961 49.9911L22.6961 49.9911C22.9947 49.3938 23.1142 48.7368 22.935 48.1396 22.8155 47.602 22.8753 46.7061 22.9947 45.87 23.1142 44.9741 24.0101 44.3768 24.9657 44.556 25.324 44.6754 25.6824 44.7352 26.1005 44.7949 26.9367 44.9143 27.5339 45.6908 27.5339 46.527L27.5339 49.2147C27.5339 50.6481 27.0561 52.0815 26.2797 53.2761 25.981 53.7539 25.8019 54.3511 25.8019 54.9484 25.8019 55.1276 25.8019 55.247 25.8616 55.3665 26.0408 56.5013 27.0561 57.3375 28.1909 57.3375L29.6841 57.3375C30.8786 57.3375 31.894 56.4416 32.0134 55.247L32.0134 55.1873C32.0731 54.4109 31.8342 53.6344 31.4162 53.0372 30.5203 51.8426 29.9827 50.4092 29.9827 48.916L29.9827 46.527C29.9827 45.6908 30.58 44.9741 31.4162 44.7949 31.7745 44.7352 32.1329 44.6754 32.4912 44.6157 33.3871 44.4365 34.2233 44.9741 34.4025 45.87 34.5817 46.7659 34.7011 47.7215 34.5817 48.3188 34.5219 48.7966 34.5219 49.2744 34.7608 49.7522 34.8206 49.8716 34.8803 49.9911 34.94 50.1106 35.4178 50.9467 36.4332 51.2454 37.3291 50.887L38.5236 50.4092C39.4195 50.0508 39.8973 49.0355 39.6584 48.0799L39.6584 48.0799C39.4792 47.4229 39.0611 46.945 38.5236 46.5867 38.0458 46.2881 37.4485 45.6311 36.9707 44.9741 36.4332 44.1976 36.6124 43.1823 37.4485 42.7045 37.8069 42.5253 38.1055 42.2864 38.4042 42.1072 39.0611 41.6294 40.0168 41.6891 40.614 42.2864L42.5253 44.1976C43.5406 45.213 44.1976 46.527 44.4963 47.9604 44.6157 48.4979 44.9143 49.0355 45.3324 49.4536 45.4519 49.573 45.5713 49.6327 45.6311 49.7522 46.527 50.4689 47.8409 50.2897 48.6771 49.5133L49.7522 48.4382C50.5884 47.602 50.6481 46.2881 49.9314 45.3324L49.9314 45.3324C49.3938 44.6754 48.6771 44.3171 47.9604 44.1976 46.527 44.0184 45.1533 43.4212 44.1379 42.3461L42.4058 40.5543C41.8086 39.957 41.6891 39.0014 42.2267 38.2847 42.4656 37.9861 42.6447 37.6874 42.8836 37.3888 43.3615 36.6124 44.3768 36.4332 45.0935 36.911 45.8102 37.3888 46.6464 38.0458 46.945 38.5236 47.2437 38.9417 47.602 39.2403 48.0799 39.4195 48.1993 39.4792 48.3188 39.539 48.4382 39.539 49.3341 39.7779 50.2897 39.2403 50.6481 38.4042L51.1259 37.2096C51.4843 36.3137 51.1259 35.2386 50.2897 34.7608L50.2897 34.7608C49.6925 34.4622 49.0355 34.4025 48.4382 34.5219 47.9007 34.6414 47.0048 34.5817 46.1686 34.4622 45.2727 34.3428 44.6754 33.4469 44.8546 32.4912 44.9143 32.1329 45.0338 31.7745 45.0935 31.3564 45.213 30.5203 45.9894 29.923 46.8256 29.923L49.5133 29.923C50.9467 29.923 52.3802 30.4008 53.5747 31.1772 54.0525 31.4759 54.6498 31.6551 55.247 31.6551 55.3665 31.6551 55.5457 31.6551 55.6651 31.6551 56.7999 31.4759 57.6361 30.4605 57.6361 29.3257L57.6361 27.8326C57.5166 26.8172 56.6207 25.8019 55.4262 25.6227ZM31.2967 17.0818C32.6107 17.0818 33.6858 18.1569 33.6858 19.4708 33.6858 20.7848 32.6107 21.8599 31.2967 21.8599 29.9827 21.8599 28.9076 20.7848 28.9076 19.4708 28.9076 18.1569 29.9827 17.0818 31.2967 17.0818ZM29.6244 25.6824C30.6994 25.6824 31.5356 26.5186 31.5356 27.5339 31.5356 28.609 30.6994 29.4452 29.6244 29.4452 28.609 29.4452 27.7728 28.609 27.7728 27.5339 27.7728 26.5186 28.609 25.6824 29.6244 25.6824ZM28.3104 34.0441C29.3855 34.0441 30.2216 34.8803 30.2216 35.9554 30.2216 36.9707 29.3855 37.8666 28.3104 37.8666 27.295 37.8666 26.3991 37.0304 26.3991 35.9554 26.4588 34.8803 27.295 34.0441 28.3104 34.0441ZM22.3974 19.4708C23.4128 19.4708 24.249 20.307 24.249 21.3224 24.249 22.3377 23.4128 23.2336 22.3974 23.2336 21.3224 23.2336 20.4862 22.3974 20.4862 21.3224 20.4862 20.2473 21.3224 19.4708 22.3974 19.4708ZM21.8599 27.7728C23.1739 27.7728 24.249 28.8479 24.249 30.1619 24.249 31.4759 23.1739 32.551 21.8599 32.551 20.5459 32.551 19.4708 31.4759 19.4708 30.1619 19.4708 28.8479 20.5459 27.7728 21.8599 27.7728ZM36.7318 39.6584C34.2233 41.7488 30.9981 42.7642 27.6534 42.6447 20.8446 42.4058 15.2303 36.7915 14.8122 29.9827 14.6927 27.4742 15.2303 25.0254 16.4248 22.8753 16.604 22.5766 16.9623 22.7558 16.9026 23.0544 16.4845 24.4879 16.3053 25.981 16.4248 27.5339 16.7832 34.6414 22.5766 40.4349 29.6841 40.7335 32.0134 40.8529 34.3428 40.3154 36.4332 39.3001 36.7318 39.0611 36.9707 39.4792 36.7318 39.6584ZM36.3137 34.8206C35.2984 34.8206 34.4025 33.9844 34.4025 32.9093 34.4025 31.894 35.2386 30.9981 36.3137 30.9981 37.3888 30.9981 38.225 31.8342 38.225 32.9093 38.1652 33.9844 37.3291 34.8206 36.3137 34.8206ZM38.7028 28.0117C37.6874 28.0117 36.7915 27.1756 36.7915 26.1005 36.7915 25.0851 37.6277 24.249 38.7028 24.249 39.7181 24.249 40.5543 25.0851 40.5543 26.1005 40.5543 27.1158 39.7181 28.0117 38.7028 28.0117Z" fill="#467E6A" transform="matrix(-1 -8.74228e-08 -8.96774e-08 1.02579 1187 276)"/></g></g></g></g></svg>